<?xml version="1.0" encoding="iso-8859-1"?>
<!-- Uploaded to: SVG Repo, www.svgrepo.com, Generator: SVG Repo Mixer Tools -->
<!DOCTYPE svg PUBLIC "-//W3C//DTD SVG 1.1//EN" "http://www.w3.org/Graphics/SVG/1.1/DTD/svg11.dtd">
<svg fill="#000000" version="1.1" id="Capa_1" xmlns="http://www.w3.org/2000/svg" xmlns:xlink="http://www.w3.org/1999/xlink" 
	 width="800px" height="800px" viewBox="0 0 433.012 433.012"
	 xml:space="preserve">
<g>
	<g id="Layer_2_22_">
		<g>
			<path d="M249.062,279.146l-29.115-20.59l0.457-35.655c0.049-3.807-2.068-7.31-5.458-9.038c-3.393-1.729-7.473-1.381-10.521,0.896
				l-28.578,21.327l-33.77-11.452c-3.605-1.222-7.59-0.293-10.283,2.399c-2.691,2.692-3.621,6.678-2.398,10.283l11.451,33.77
				l-21.326,28.578c-2.277,3.051-2.623,7.129-0.896,10.521c1.729,3.392,5.27,5.52,9.039,5.459l35.654-0.455l20.59,29.112
				c1.893,2.676,4.949,4.228,8.162,4.228c0.52,0,1.043-0.041,1.566-0.124c3.76-0.596,6.855-3.274,7.984-6.909l10.586-34.051
				l34.051-10.584c3.635-1.13,6.312-4.227,6.907-7.985C253.76,285.115,252.17,281.343,249.062,279.146z M201.248,289.906
				c-3.143,0.977-5.604,3.438-6.58,6.581l-6.133,19.723l-11.926-16.863c-1.875-2.651-4.92-4.226-8.164-4.226
				c-0.041,0-0.084,0-0.127,0.001l-20.652,0.264l12.354-16.553c1.967-2.638,2.512-6.075,1.455-9.192l-6.633-19.56l19.559,6.633
				c3.119,1.058,6.557,0.514,9.193-1.456l16.553-12.353l-0.264,20.651c-0.043,3.291,1.537,6.393,4.225,8.292l16.863,11.926
				L201.248,289.906z"/>
			<path d="M376.885,5.057c-33.625-14.943-74.965,4.36-92.146,43.028c-2.973,6.691-5.01,13.53-6.207,20.343l-30.141,1.482
				c-2.479,0.122-4.824,1.162-6.58,2.917L21.734,292.905c-1.875,1.875-2.928,4.419-2.928,7.071c0,2.651,1.053,5.195,2.928,7.07
				l123.037,123.036c1.953,1.953,4.512,2.93,7.072,2.93c2.559,0,5.117-0.978,7.07-2.93l220.078-220.078
				c1.754-1.755,2.795-4.101,2.916-6.58l3.531-71.801c8.935-7.957,16.24-18.014,21.275-29.344
				C423.895,63.614,410.514,20,376.885,5.057z M151.844,408.87L42.95,299.976l210.277-210.28l24.225-1.191
				c1.24,17.583,8.244,33.737,19.984,45.171c-1.422,5.623,0.047,11.827,4.445,16.226c6.647,6.648,17.43,6.648,24.078,0
				c6.647-6.648,6.647-17.429,0-24.077c-4.379-4.38-10.552-5.855-16.154-4.463c-8.734-8.355-13.941-20.415-14.93-33.713
				l72.879-3.584l-5.633,114.527L151.844,408.87z M390.748,95.187c-1.152,2.593-2.453,5.1-3.888,7.506l1.41-28.668
				c0.139-2.819-0.92-5.566-2.916-7.563c-1.996-1.995-4.742-3.055-7.562-2.917l-81.259,3.997c0.984-4.141,2.359-8.284,4.173-12.363
				c13.268-29.864,44.26-45.187,69.084-34.155C394.615,32.055,404.018,65.324,390.748,95.187z"/>
		</g>
	</g>
</g>
</svg>